<svg width="900" height="1200" viewBox="0 0 900 1200" fill="none" xmlns="http://www.w3.org/2000/svg">
  <defs>
    <linearGradient id="bg" x1="80" y1="80" x2="820" y2="1120" gradientUnits="userSpaceOnUse">
      <stop stop-color="#FFFFFF"/>
      <stop offset="0.55" stop-color="#F6F0FF"/>
      <stop offset="1" stop-color="#EAF4FF"/>
    </linearGradient>
    <linearGradient id="brand" x1="200" y1="180" x2="760" y2="920" gradientUnits="userSpaceOnUse">
      <stop stop-color="#9B6CFF"/>
      <stop offset="1" stop-color="#35B7FF"/>
    </linearGradient>
    <filter id="shadow" x="70" y="130" width="760" height="920" filterUnits="userSpaceOnUse" color-interpolation-filters="sRGB">
      <feDropShadow dx="0" dy="28" stdDeviation="34" flood-color="#6146B9" flood-opacity="0.16"/>
    </filter>
  </defs>
  <rect width="900" height="1200" rx="72" fill="url(#bg)"/>
  <circle cx="760" cy="170" r="120" fill="#9B6CFF" fill-opacity="0.10"/>
  <circle cx="145" cy="1010" r="170" fill="#35B7FF" fill-opacity="0.10"/>
  <rect x="118" y="132" width="664" height="904" rx="54" fill="white" fill-opacity="0.86" stroke="#E9DDFE" filter="url(#shadow)"/>
  <path d="M365 205C391 180 509 180 535 205" stroke="#B7A6E9" stroke-width="12" stroke-linecap="round"/>
  <path d="M450 192V262" stroke="#B7A6E9" stroke-width="12" stroke-linecap="round"/>
  <path d="M314 282H586" stroke="#B7A6E9" stroke-width="10" stroke-linecap="round"/>
  
  <path d="M336 312H564L596 890H488L450 448L412 890H304L336 312Z" fill="#4F8CC9"/>
  <path d="M336 312H564V396H336V312Z" fill="#3F78AF"/>
  <path d="M450 396V890" stroke="#D6ECFF" stroke-opacity="0.8" stroke-width="8"/>
  <path d="M358 352H414M486 352H542" stroke="#D6ECFF" stroke-width="7" stroke-linecap="round"/>
  <path d="M322 842H420M480 842H578" stroke="#2E668F" stroke-width="10" stroke-linecap="round"/>

  <rect x="170" y="960" width="560" height="46" rx="23" fill="#F8F5FF" stroke="#E4D7FF"/>
  <text x="450" y="991" text-anchor="middle" font-family="Arial, Helvetica, sans-serif" font-size="22" font-weight="700" fill="#4B3B77">Calça Wide Leg Jeans</text>
  <text x="450" y="1045" text-anchor="middle" font-family="Arial, Helvetica, sans-serif" font-size="18" fill="#7A7194">Jeans wide leg</text>
  <text x="450" y="1095" text-anchor="middle" font-family="Arial, Helvetica, sans-serif" font-size="20" font-weight="800" letter-spacing="5" fill="#9B6CFF">PROVEI FIT</text>
</svg>